<svg width="20" height="18" viewBox="0 0 20 18" fill="none" xmlns="http://www.w3.org/2000/svg">
<path fill-rule="evenodd" clip-rule="evenodd" d="M9.09197 0.0892052C8.44819 0.254555 7.96176 0.532867 7.45595 1.02532C6.72832 1.73373 6.39517 2.512 6.39517 3.50349C6.39517 4.49541 6.72882 5.2724 7.45708 5.97642C8.19626 6.69095 8.98911 7.01444 10.0014 7.01444C11.0136 7.01444 11.8065 6.69095 12.5456 5.97642C13.2815 5.26501 13.6082 4.49499 13.6068 3.47541C13.6054 2.48733 13.2829 1.74204 12.5468 1.02532C12.0322 0.52438 11.5481 0.251015 10.8819 0.0854811C10.4174 -0.0299832 9.54898 -0.0282131 9.09197 0.0892052ZM10.468 2.04264C10.94 2.1791 11.3686 2.60506 11.5098 3.07791C11.9195 4.45011 10.2816 5.58717 9.09774 4.75229C8.28795 4.18114 8.19751 3.1168 8.90062 2.43226C9.35889 1.98609 9.85015 1.86397 10.468 2.04264ZM5.95616 8.77095C5.47462 9.02099 0.632236 12.1206 0.421259 12.3138C-0.0116085 12.7103 -0.124749 13.3822 0.146625 13.9447C0.227654 14.1127 0.347317 14.2954 0.412542 14.3507C0.634056 14.5386 5.73514 17.7774 5.98751 17.8903C6.31558 18.0371 6.85331 18.0365 7.17912 17.8889C7.3171 17.8264 7.54601 17.6553 7.68781 17.5086C7.86518 17.3252 13.1239 11.2828 13.517 10.8107C13.5263 10.7996 14.4272 11.3603 15.5193 12.0565L17.505 13.3224L15.7914 14.4157C12.4175 16.5683 12.5727 16.4423 12.5727 17.0283C12.5727 17.4303 12.6855 17.6306 13.0489 17.8733C13.2252 17.991 13.3236 18.0119 13.6107 17.9923C13.9467 17.9695 14.0523 17.9091 16.6211 16.2711C18.0854 15.3374 19.3755 14.5059 19.4881 14.4233C20.1289 13.953 20.1772 12.8605 19.5814 12.3134C19.4865 12.2262 18.1998 11.3844 16.7221 10.4427C13.7252 8.53276 13.6677 8.50528 13.0376 8.68364C12.8386 8.73993 12.6051 8.86358 12.4759 8.98106C12.3542 9.09158 10.9608 10.6727 9.37952 12.4946C7.79826 14.3164 6.47814 15.8071 6.44603 15.8071C6.39799 15.8071 3.93669 14.26 2.80216 13.5167L2.50175 13.3198L4.82683 11.8376C6.18369 10.9727 7.20734 10.2796 7.28524 10.1731C7.59261 9.7528 7.45282 9.06306 7.00571 8.79403C6.63876 8.57324 6.34914 8.56683 5.95616 8.77095Z" fill="#171818"/>
</svg>
