<svg width="24" height="24" viewBox="0 0 24 24" fill="none" xmlns="http://www.w3.org/2000/svg">
<path d="M12 0C10.4241 0 8.86371 0.310389 7.4078 0.913446C5.95189 1.5165 4.62902 2.40042 3.51472 3.51472C1.26428 5.76516 0 8.8174 0 12C0 15.1826 1.26428 18.2348 3.51472 20.4853C4.62902 21.5996 5.95189 22.4835 7.4078 23.0866C8.86371 23.6896 10.4241 24 12 24C15.1826 24 18.2348 22.7357 20.4853 20.4853C22.7357 18.2348 24 15.1826 24 12C24 10.4241 23.6896 8.86371 23.0866 7.4078C22.4835 5.95189 21.5996 4.62902 20.4853 3.51472C19.371 2.40042 18.0481 1.5165 16.5922 0.913446C15.1363 0.310389 13.5759 0 12 0ZM12 7.668C13.9362 8.92594 16.195 9.59691 18.504 9.6C19.44 9.6 20.34 9.492 21.204 9.288C21.456 10.14 21.6 11.052 21.6 12C21.6 17.292 17.292 21.6 12 21.6C8.4 21.6 5.268 19.608 3.6 16.668L5.7 14.4V13.2C5.7 12.8022 5.85804 12.4206 6.13934 12.1393C6.42064 11.858 6.80218 11.7 7.2 11.7C7.59783 11.7 7.97936 11.858 8.26066 12.1393C8.54197 12.4206 8.7 12.8022 8.7 13.2V14.4H12M16.8 11.7C16.4022 11.7 16.0206 11.858 15.7393 12.1393C15.458 12.4206 15.3 12.8022 15.3 13.2C15.3 13.5978 15.458 13.9794 15.7393 14.2607C16.0206 14.542 16.4022 14.7 16.8 14.7C17.1978 14.7 17.5794 14.542 17.8607 14.2607C18.142 13.9794 18.3 13.5978 18.3 13.2C18.3 12.8022 18.142 12.4206 17.8607 12.1393C17.5794 11.858 17.1978 11.7 16.8 11.7Z" fill="black"/>
</svg>
